{
  "accessors": [
    {
      "bufferView": 2,
      "componentType": 5126,
      "count": 4863,
      "max": [
        0.044908616691827774,
        5.404779130913084e-07,
        -3.5970677825236663e-11
      ],
      "min": [
        -0.039125896990299225,
        5.367526227928465e-07,
        -0.09352204948663712
      ],
      "type": "VEC3"
    },
    {
      "bufferView": 2,
      "byteOffset": 58356,
      "componentType": 5126,
      "count": 4863,
      "max": [
        0.0,
        1.0,
        0.00019999999494757503
      ],
      "min": [
        0.0,
        -1.0,
        0.0
      ],
      "type": "VEC3"
    },
    {
      "bufferView": 1,
      "componentType": 5126,
      "count": 4863,
      "max": [
        0.9831441640853882,
        0.9928147792816162
      ],
      "min": [
        0.01494792103767395,
        0.017388343811035156
      ],
      "type": "VEC2"
    },
    {
      "bufferView": 0,
      "componentType": 5125,
      "count": 14367,
      "type": "SCALAR"
    },
    {
      "bufferView": 2,
      "byteOffset": 116712,
      "componentType": 5126,
      "count": 23111,
      "max": [
        3.6569018363952637,
        1.6937702894210815,
        0.2664570212364197
      ],
      "min": [
        -0.97965407371521,
        -1.1120390892028809,
        -0.29404252767562866
      ],
      "type": "VEC3"
    },
    {
      "bufferView": 2,
      "byteOffset": 394044,
      "componentType": 5126,
      "count": 23111,
      "max": [
        0.9958776831626892,
        1.0,
        1.0
      ],
      "min": [
        -0.996261715888977,
        -1.0,
        -1.0
      ],
      "type": "VEC3"
    },
    {
      "bufferView": 1,
      "byteOffset": 38904,
      "componentType": 5126,
      "count": 23111,
      "max": [
        1.0,
        0.9900000095367432
      ],
      "min": [
        0.0,
        0.0
      ],
      "type": "VEC2"
    },
    {
      "bufferView": 0,
      "byteOffset": 57468,
      "componentType": 5125,
      "count": 39450,
      "type": "SCALAR"
    },
    {
      "bufferView": 2,
      "byteOffset": 671376,
      "componentType": 5126,
      "count": 5166,
      "max": [
        0.013039999641478062,
        0.013039999641478062,
        0.442234069108963
      ],
      "min": [
        -0.013039999641478062,
        -0.013039999641478062,
        -0.3589380085468292
      ],
      "type": "VEC3"
    },
    {
      "bufferView": 2,
      "byteOffset": 733368,
      "componentType": 5126,
      "count": 5166,
      "max": [
        0.9980915188789368,
        0.9951768517494202,
        1.0
      ],
      "min": [
        -0.9980915188789368,
        -0.9951768517494202,
        -0.9999324083328247
      ],
      "type": "VEC3"
    },
    {
      "bufferView": 1,
      "byteOffset": 223792,
      "componentType": 5126,
      "count": 5166,
      "max": [
        0.0,
        0.0
      ],
      "min": [
        0.0,
        0.0
      ],
      "type": "VEC2"
    },
    {
      "bufferView": 0,
      "byteOffset": 215268,
      "componentType": 5125,
      "count": 6714,
      "type": "SCALAR"
    },
    {
      "bufferView": 2,
      "byteOffset": 795360,
      "componentType": 5126,
      "count": 5166,
      "max": [
        0.013039999641478062,
        0.013039999641478062,
        0.442234069108963
      ],
      "min": [
        -0.013039999641478062,
        -0.013039999641478062,
        -0.3589380085468292
      ],
      "type": "VEC3"
    },
    {
      "bufferView": 2,
      "byteOffset": 857352,
      "componentType": 5126,
      "count": 5166,
      "max": [
        0.9980915188789368,
        0.9951768517494202,
        1.0
      ],
      "min": [
        -0.9980915188789368,
        -0.9951768517494202,
        -0.9999324083328247
      ],
      "type": "VEC3"
    },
    {
      "bufferView": 1,
      "byteOffset": 265120,
      "componentType": 5126,
      "count": 5166,
      "max": [
        0.0,
        0.0
      ],
      "min": [
        0.0,
        0.0
      ],
      "type": "VEC2"
    },
    {
      "bufferView": 0,
      "byteOffset": 242124,
      "componentType": 5125,
      "count": 6714,
      "type": "SCALAR"
    }
  ],
  "asset": {
    "extras": {
      "author": "argaanug (https://sketchfab.com/argaanug)",
      "license": "CC-BY-4.0 (http://creativecommons.org/licenses/by/4.0/)",
      "source": "https://sketchfab.com/3d-models/wayang-jawa-bima-yudistira-c0d39bc019294e679d86b34077711fb4",
      "title": "Wayang jawa Bima Yudistira"
    },
    "generator": "Sketchfab-16.63.0",
    "version": "2.0"
  },
  "bufferViews": [
    {
      "buffer": 0,
      "byteLength": 268980,
      "name": "floatBufferViews",
      "target": 34963
    },
    {
      "buffer": 0,
      "byteLength": 306448,
      "byteOffset": 268980,
      "byteStride": 8,
      "name": "floatBufferViews",
      "target": 34962
    },
    {
      "buffer": 0,
      "byteLength": 919344,
      "byteOffset": 575428,
      "byteStride": 12,
      "name": "floatBufferViews",
      "target": 34962
    }
  ],
  "buffers": [
    {
      "byteLength": 1494772,
      "uri": "scene.bin"
    }
  ],
  "images": [
    {
      "uri": "textures/SVGMat.001_baseColor.png"
    }
  ],
  "materials": [
    {
      "doubleSided": true,
      "name": "SVGMat.001",
      "pbrMetallicRoughness": {
        "baseColorTexture": {
          "index": 0
        },
        "metallicFactor": 0.2,
        "roughnessFactor": 0.2
      }
    },
    {
      "doubleSided": true,
      "name": "frame",
      "pbrMetallicRoughness": {
        "baseColorFactor": [
          0.0,
          0.0,
          0.0,
          1.0
        ],
        "metallicFactor": 0.0,
        "roughnessFactor": 0.782206
      }
    }
  ],
  "meshes": [
    {
      "name": "Object_0",
      "primitives": [
        {
          "attributes": {
            "NORMAL": 1,
            "POSITION": 0,
            "TEXCOORD_0": 2
          },
          "indices": 3,
          "material": 0,
          "mode": 4
        }
      ]
    },
    {
      "name": "Object_1",
      "primitives": [
        {
          "attributes": {
            "NORMAL": 5,
            "POSITION": 4,
            "TEXCOORD_0": 6
          },
          "indices": 7,
          "material": 1,
          "mode": 4
        }
      ]
    },
    {
      "name": "Object_2",
      "primitives": [
        {
          "attributes": {
            "NORMAL": 9,
            "POSITION": 8,
            "TEXCOORD_0": 10
          },
          "indices": 11,
          "material": 1,
          "mode": 4
        }
      ]
    },
    {
      "name": "Object_3",
      "primitives": [
        {
          "attributes": {
            "NORMAL": 13,
            "POSITION": 12,
            "TEXCOORD_0": 14
          },
          "indices": 15,
          "material": 1,
          "mode": 4
        }
      ]
    }
  ],
  "nodes": [
    {
      "children": [
        1
      ],
      "matrix": [
        1.0,
        0.0,
        0.0,
        0.0,
        0.0,
        2.220446049250313e-16,
        -1.0,
        0.0,
        0.0,
        1.0,
        2.220446049250313e-16,
        0.0,
        0.0,
        0.0,
        0.0,
        1.0
      ],
      "name": "Sketchfab_model"
    },
    {
      "children": [
        2
      ],
      "name": "root"
    },
    {
      "children": [
        3
      ],
      "matrix": [
        1.0,
        0.0,
        0.0,
        0.0,
        0.0,
        2.220446049250313e-16,
        1.0,
        0.0,
        0.0,
        -1.0,
        2.220446049250313e-16,
        0.0,
        0.0,
        0.0,
        0.0,
        1.0
      ],
      "name": "GLTF_SceneRootNode"
    },
    {
      "children": [
        4,
        6,
        8,
        10
      ],
      "name": "Empty_4"
    },
    {
      "children": [
        5
      ],
      "matrix": [
        10.425548553466797,
        0.0,
        0.0,
        0.0,
        0.0,
        0.0,
        10.425548553466797,
        0.0,
        0.0,
        -10.425548553466797,
        0.0,
        0.0,
        0.0007230911869555712,
        0.08650525659322739,
        -0.00046131282579153776,
        1.0
      ],
      "name": "Curve_0"
    },
    {
      "mesh": 0,
      "name": "Object_5"
    },
    {
      "children": [
        7
      ],
      "matrix": [
        0.05149129384432698,
        0.01354963614960828,
        0.0,
        0.0,
        -0.13502471628488386,
        0.5131205934760718,
        0.0,
        0.0,
        0.0,
        0.0,
        0.04652992635965347,
        0.0,
        0.0002829770091921091,
        0.10193214565515518,
        -0.00018046610057353973,
        1.0
      ],
      "name": "frame_1"
    },
    {
      "mesh": 1,
      "name": "Object_7"
    },
    {
      "children": [
        9
      ],
      "matrix": [
        0.6325325473189838,
        -0.19886557466458973,
        0.0,
        0.0,
        0.0,
        0.0,
        -0.6630573272705078,
        0.0,
        0.2999221701688742,
        0.9539636742775863,
        0.0,
        0.0,
        0.291332483291626,
        0.045869313180446625,
        -0.0008222450269386172,
        1.0
      ],
      "name": "Object_2.001_2"
    },
    {
      "mesh": 2,
      "name": "Object_9"
    },
    {
      "children": [
        11
      ],
      "matrix": [
        0.4365330927315019,
        0.499083037376925,
        -4.6200103264616514e-08,
        0.0,
        4.620010741771253e-08,
        -1.0178906455722213e-07,
        -0.6630573868751432,
        0.0,
        -0.7526996789725753,
        0.6583640279317806,
        -1.53514713163716e-07,
        0.0,
        0.011792969889938831,
        0.02820407599210739,
        -0.0008222450269386172,
        1.0
      ],
      "name": "Object_2.002_3"
    },
    {
      "mesh": 3,
      "name": "Object_11"
    }
  ],
  "samplers": [
    {
      "magFilter": 9729,
      "minFilter": 9987,
      "wrapS": 10497,
      "wrapT": 10497
    }
  ],
  "scene": 0,
  "scenes": [
    {
      "name": "Sketchfab_Scene",
      "nodes": [
        0
      ]
    }
  ],
  "textures": [
    {
      "sampler": 0,
      "source": 0
    }
  ]
}
